HIERARCHY
ROOT Hips
{
    OFFSET 0.000000 0.000000 0.000000
    CHANNELS 6 Xposition Yposition Zposition Zrotation Xrotation Yrotation
    JOINT Spine
    {
        OFFSET -0.000000 7.236184 0.000000
        CHANNELS 3 Zrotation Xrotation Yrotation
        JOINT Spine1
        {
            OFFSET -0.000000 20.420147 0.000000
            CHANNELS 3 Zrotation Xrotation Yrotation
            JOINT Neck
            {
                OFFSET -0.000000 20.336288 1.848754
                CHANNELS 3 Zrotation Xrotation Yrotation
                JOINT Head
                {
                    OFFSET -0.000000 12.354461 -1.764923
                    CHANNELS 3 Zrotation Xrotation Yrotation
                    End Site
                    {
                        OFFSET -0.000000 22.061537 0.000000
                    }
                }
            }
            JOINT LeftShoulder
            {
                OFFSET 3.573296 18.396038 -0.314103
                CHANNELS 3 Zrotation Xrotation Yrotation
                JOINT LeftArm
                {
                    OFFSET 10.880760 0.000000 0.000000
                    CHANNELS 3 Zrotation Xrotation Yrotation
                    JOINT LeftForeArm
                    {
                        OFFSET 27.185530 0.000000 0.000000
                        CHANNELS 3 Zrotation Xrotation Yrotation
                        JOINT LeftHand
                        {
                            OFFSET 27.825975 0.000000 0.000000
                            CHANNELS 3 Zrotation Xrotation Yrotation
                            End Site
                            {
                                OFFSET 13.236923 0.000000 0.000000
                            }
                        }
                    }
                }
            }
            JOINT RightShoulder
            {
                OFFSET -3.474926 18.396038 -0.314103
                CHANNELS 3 Zrotation Xrotation Yrotation
                JOINT RightArm
                {
                    OFFSET -10.880760 0.000000 0.000000
                    CHANNELS 3 Zrotation Xrotation Yrotation
                    JOINT RightForeArm
                    {
                        OFFSET -27.185530 0.000000 0.000000
                        CHANNELS 3 Zrotation Xrotation Yrotation
                        JOINT RightHand
                        {
                            OFFSET -27.825975 0.000000 0.000000
                            CHANNELS 3 Zrotation Xrotation Yrotation
                            End Site
                            {
                                OFFSET -13.236923 0.000000 0.000000
                            }
                        }
                    }
                }
            }
        }
    }
    JOINT LeftUpLeg
    {
        OFFSET 8.824615 0.000000 0.000000
        CHANNELS 3 Zrotation Xrotation Yrotation
        JOINT LeftLeg
        {
            OFFSET -0.000000 -35.111282 0.000000
            CHANNELS 3 Zrotation Xrotation Yrotation
            JOINT LeftFoot
            {
                OFFSET -0.000000 -42.324711 0.000000
                CHANNELS 3 Zrotation Xrotation Yrotation
                JOINT LeftToeBase
                {
                    OFFSET -0.000000 -5.735999 13.236923
                    CHANNELS 3 Zrotation Xrotation Yrotation
                    End Site
                    {
                        OFFSET -0.000000 0.000000 3.529846
                    }
                }
            }
        }
    }
    JOINT RightUpLeg
    {
        OFFSET -8.824615 0.000000 0.000000
        CHANNELS 3 Zrotation Xrotation Yrotation
        JOINT RightLeg
        {
            OFFSET -0.000000 -35.111282 0.000000
            CHANNELS 3 Zrotation Xrotation Yrotation
            JOINT RightFoot
            {
                OFFSET -0.000000 -42.324711 0.000000
                CHANNELS 3 Zrotation Xrotation Yrotation
                JOINT RightToeBase
                {
                    OFFSET -0.000000 -5.735999 13.236923
                    CHANNELS 3 Zrotation Xrotation Yrotation
                    End Site
                    {
                        OFFSET -0.000000 0.000000 3.529846
                    }
                }
            }
        }
    }
}
MOTION
Frames:    10
Frame Time:    0.008333
-21.116079    86.896309    92.856392    -15.165976    16.603474    114.251152    2.625463    -12.833200    -1.794351    6.305984    14.099743    -2.870121    -0.126179    18.071756    14.289463    -16.411562    11.800240    14.287340    4.315784    17.161922    -5.574955    -38.359951    50.735348    -48.858608    15.715741    5.975125    -23.609493    42.852634    5.859849    -8.701289    -3.927856    8.003062    -1.455516    37.763710    19.622917    44.332851    -3.244785    -20.445305    131.440887    -15.738723    -11.745384    -13.388296    1.543967    -30.284891    -8.559514    -12.652350    30.295261    39.264408    -7.910125    29.403704    -25.549683    -0.348531    -0.421361    0.386628    -19.138069    -16.894810    -4.863715    1.627235    21.878696    5.116464    -7.890692    -6.639418    -19.068996    -1.794280    -1.491048    1.944650    
-21.212479    86.944008    92.893616    -15.268802    16.783415    114.529800    2.611133    -12.720742    -1.805314    6.185932    14.112137    -2.862683    -0.191155    18.067907    14.249648    -16.389021    11.812584    14.247001    4.325605    17.087067    -5.638824    -37.827351    50.711491    -49.010052    15.750658    6.007957    -23.804945    43.723145    5.711724    -9.049913    -3.907882    8.023940    -1.455148    37.817757    19.597525    44.137665    -3.208507    -20.554239    131.487244    -15.676854    -11.939378    -13.376734    2.056200    -31.257166    -7.848711    -13.093819    31.653128    39.435852    -7.775485    29.581717    -25.915409    -0.367760    -0.064287    0.407696    -19.423265    -16.859114    -4.972656    1.679619    21.843945    4.938392    -7.850976    -6.616867    -19.056684    -1.826342    -1.459455    1.979311    
-21.309879    86.995079    92.929146    -15.374286    16.986633    114.787216    2.589288    -12.602712    -1.809554    6.041829    14.130117    -2.844848    -0.250879    18.074038    14.206568    -16.361082    11.836388    14.205176    4.334903    17.010712    -5.703778    -37.301121    50.660347    -49.134666    15.778536    6.051166    -23.989412    44.610550    5.557716    -9.410494    -3.887415    8.044049    -1.456640    37.845215    19.607418    43.978245    -3.172975    -20.671722    131.511398    -15.621086    -12.142970    -13.371054    2.641030    -32.270390    -7.133922    -13.595452    33.111805    39.692699    -7.629265    29.688795    -26.242098    -0.396341    0.212996    0.439162    -19.725164    -16.828131    -5.058020    1.731153    21.815119    4.766967    -7.811499    -6.585509    -19.052979    -1.856852    -1.434891    2.012305    
-21.413195    87.051773    92.964462    -15.488372    17.226311    115.031654    2.555910    -12.472084    -1.807148    5.867092    14.154784    -2.815377    -0.309935    18.089615    14.160165    -16.327991    11.870942    14.161620    4.343320    16.927938    -5.772847    -36.754337    50.580139    -49.235207    15.800713    6.110760    -24.173195    45.562706    5.390450    -9.805990    -3.865693    8.064504    -1.461357    37.851757    19.647467    43.847252    -3.133379    -20.791512    131.516129    -15.566298    -12.360341    -13.369615    3.341777    -33.373772    -6.389812    -14.204759    34.745388    40.081196    -7.457274    29.725840    -26.543026    -0.437045    0.418925    0.484086    -20.060591    -16.804508    -5.125892    1.781354    21.795691    4.600854    -7.770485    -6.542722    -19.058249    -1.887348    -1.417337    2.045302    
-21.512213    87.108292    92.995712    -15.599857    17.482811    115.234428    2.511500    -12.339725    -1.798303    5.677994    14.184145    -2.776702    -0.365015    18.112478    14.117425    -16.293350    11.909567    14.122540    4.349558    16.846031    -5.838567    -36.238789    50.479130    -49.298813    15.814995    6.184134    -24.339855    46.488117    5.227242    -10.201067    -3.845394    8.083110    -1.469024    37.842159    19.708075    43.757050    -3.091346    -20.890171    131.503281    -15.514778    -12.562837    -13.370770    4.103889    -34.456059    -5.699088    -14.889351    36.392696    40.595829    -7.270975    29.686451    -26.790440    -0.485903    0.532958    0.538092    -20.398569    -16.793797    -5.171792    1.821679    21.792288    4.464038    -7.732656    -6.492154    -19.072344    -1.914747    -1.409349    2.074970    
-21.612625    87.167564    93.024742    -15.714767    17.772434    115.406723    2.452023    -12.196403    -1.783710    5.464561    14.220240    -2.727692    -0.422493    18.141703    14.078565    -16.255926    11.950223    14.087863    4.353185    16.758886    -5.903478    -35.721973    50.354393    -49.328743    15.823050    6.276014    -24.501419    47.441250    5.058481    -10.619954    -3.825606    8.101511    -1.478949    37.822376    19.785254    43.698093    -3.044296    -20.966537    131.476624    -15.459938    -12.755032    -13.371975    4.977447    -35.573933    -5.020913    -15.704032    38.138966    41.276642    -7.058973    29.578016    -27.009357    -0.544133    0.576913    0.602529    -20.758902    -16.796345    -5.204137    1.850671    21.806736    4.354041    -7.696585    -6.431945    -19.094341    -1.940231    -1.409572    2.102586    
-21.707512    87.225349    93.049461    -15.824854    18.077837    115.535851    2.379904    -12.050249    -1.765228    5.240667    14.261268    -2.672353    -0.480676    18.172817    14.048511    -16.218842    11.987711    14.061856    4.353436    16.671312    -5.962029    -35.235352    50.215824    -49.322395    15.824651    6.380020    -24.648277    48.357777    4.895200    -11.034491    -3.807832    8.119257    -1.489304    37.797844    19.869652    43.671902    -2.996354    -21.011997    131.441132    -15.402780    -12.918734    -13.370663    5.910192    -36.646034    -4.396919    -16.608631    39.857887    42.082817    -6.836775    29.414192    -27.193090    -0.606517    0.559949    0.671628    -21.118347    -16.812910    -5.225333    1.863221    21.840689    4.283562    -7.666389    -6.368837    -19.121735    -1.962183    -1.416843    2.126397    
-21.805552    87.286797    93.072136    -15.940043    18.428997    115.633934    2.287091    -11.886372    -1.742187    4.985174    14.311106    -2.606392    -0.546749    18.206171    14.026418    -16.179588    12.023808    14.043892    4.349535    16.574081    -6.018869    -34.731411    50.051769    -49.278183    15.820481    6.504810    -24.793859    49.322205    4.720918    -11.482637    -3.790557    8.138224    -1.499476    37.769474    19.966976    43.672020    -2.944679    -21.030453    131.397018    -15.336561    -13.065115    -13.364429    6.995430    -37.765305    -3.757107    -17.696579    41.699108    43.082436    -6.589864    29.188198    -27.362915    -0.676622    0.496345    0.749344    -21.511292    -16.845486    -5.242333    1.857955    21.898766    4.249606    -7.641241    -6.300508    -19.154854    -1.982388    -1.429848    2.148331    
-21.898960    87.347031    93.090652    -16.051565    18.802727    115.690872    2.178066    -11.715582    -1.716948    4.715286    14.365760    -2.534882    -0.616366    18.237431    14.016340    -16.143120    12.054309    14.037543    4.340832    16.473228    -6.069169    -34.247650    49.874378    -49.194813    15.811397    6.640662    -24.925028    50.258133    4.548568    -11.929138    -3.774777    8.158017    -1.507595    37.740837    20.069427    43.697701    -2.894723    -21.019510    131.350403    -15.264615    -13.178645    -13.352066    8.162654    -38.838531    -3.141041    -18.902206    43.512997    44.198284    -6.344792    28.918268    -27.502161    -0.746154    0.400024    0.826491    -21.910332    -16.893745    -5.257901    1.832204    21.980169    4.260697    -7.625127    -6.235691    -19.189636    -1.998973    -1.446354    2.166354    
-21.990194    87.407394    93.105614    -16.162996    19.208401    115.710884    2.049210    -11.533348    -1.689818    4.424514    14.425045    -2.456882    -0.691344    18.266684    14.018753    -16.110142    12.078855    14.043159    4.326581    16.365728    -6.115318    -33.770134    49.679848    -49.069180    15.798897    6.788729    -25.042620    51.186890    4.373233    -12.382417    -3.759981    8.179501    -1.512904    37.711754    20.180460    43.744896    -2.847324    -20.983759    131.303085    -15.186682    -13.262173    -13.333777    9.443669    -39.887730    -2.515390    -20.251705    45.334663    45.434315    -6.105697    28.605679    -27.611847    -0.813391    0.283220    0.901154    -22.327053    -16.959696    -5.276888    1.785200    22.087793    4.316995    -7.617964    -6.175391    -19.224934    -2.012326    -1.465423    2.180882    
